<?xml version="1.0" encoding="UTF-8"?>
<svg id="Layer_2" data-name="Layer 2" xmlns="http://www.w3.org/2000/svg" xmlns:xlink="http://www.w3.org/1999/xlink" viewBox="0 0 248.56 190.53">
  <defs>
    <style>
      .cls-1 {
        fill: url(#linear-gradient-2);
      }

      .cls-2 {
        fill: url(#linear-gradient);
      }

      .cls-3 {
        stroke-width: 2.23px;
      }

      .cls-3, .cls-4 {
        fill: none;
        stroke: #221f20;
      }

      .cls-4 {
        stroke-width: 1.71px;
      }
    </style>
    <linearGradient id="linear-gradient" x1="227.16" y1="8.11" x2="227.1" y2="183.42" gradientUnits="userSpaceOnUse">
      <stop offset="0" stop-color="#999"/>
      <stop offset=".32" stop-color="#fff"/>
      <stop offset="1" stop-color="#000"/>
    </linearGradient>
    <linearGradient id="linear-gradient-2" x1="113.24" y1=".82" x2="113.18" y2="189.64" gradientUnits="userSpaceOnUse">
      <stop offset="0" stop-color="#999"/>
      <stop offset=".32" stop-color="#fff"/>
      <stop offset="1" stop-color="#595959"/>
    </linearGradient>
  </defs>
  <g id="Layer_1-2" data-name="Layer 1">
    <g>
      <rect class="cls-2" x="206.82" y="8.12" width="40.63" height="175.3" rx="11.14" ry="11.14"/>
      <rect class="cls-3" x="206.82" y="8.12" width="40.63" height="175.3" rx="11.14" ry="11.14"/>
    </g>
    <g>
      <path class="cls-1" d="M225.55,181.11c0,4.71-3.85,8.57-8.57,8.57h-8.33c-4.71,0-10.07-2.93-13.13-6.51l-27.21-39.98c-3.06-3.58-9.42-6.51-14.13-6.51H9.42c-4.71,0-8.57-3.85-8.57-8.57V63.42c0-4.71,3.85-8.57,8.57-8.57h145.06c4.71,0,11.03-2.96,14.05-6.58l27.07-40.85c3.02-3.62,8.34-6.58,13.05-6.58h8.33c4.71,0,8.57,3.85,8.57,8.57v171.69Z"/>
      <path class="cls-4" d="M225.55,181.11c0,4.71-3.85,8.57-8.57,8.57h-8.33c-4.71,0-10.07-2.93-13.13-6.51l-27.21-39.98c-3.06-3.58-9.42-6.51-14.13-6.51H9.42c-4.71,0-8.57-3.85-8.57-8.57V63.42c0-4.71,3.85-8.57,8.57-8.57h145.06c4.71,0,11.03-2.96,14.05-6.58l27.07-40.85c3.02-3.62,8.34-6.58,13.05-6.58h8.33c4.71,0,8.57,3.85,8.57,8.57v171.69Z"/>
    </g>
  </g>
</svg>